<svg xmlns="http://www.w3.org/2000/svg" viewBox="0 0 21.73 22.14"><defs><style>.cls-1{fill:none;}.cls-1,.cls-2,.cls-3{stroke:#0051a8;stroke-miterlimit:10;}.cls-1,.cls-2{stroke-width:0.72px;}.cls-2,.cls-3{fill:#0051a8;}.cls-3{stroke-width:0.92px;}</style></defs><g id="Layer_2" data-name="Layer 2"><g id="Layer_2-2" data-name="Layer 2"><path class="cls-1" d="M10.91,19.09H2.09A1.74,1.74,0,0,1,.36,17.36v-.82a1.66,1.66,0,0,1,.53-1,3.73,3.73,0,0,0,.55-.46A7.78,7.78,0,0,0,3.71,9.64V7.45A5.07,5.07,0,0,1,8.76,2.4H10.9"/><path class="cls-1" d="M10.82,19.09h8.82a1.74,1.74,0,0,0,1.73-1.73v-.82a1.62,1.62,0,0,0-.54-1,5.15,5.15,0,0,1-.55-.46A7.87,7.87,0,0,1,18,9.64V7.45A5.07,5.07,0,0,0,13,2.4H10.83"/><rect class="cls-2" x="9.62" y="20.07" width="2.49" height="1.71" rx="0.85"/><rect class="cls-3" x="9.92" y="0.46" width="1.89" height="1.66" rx="0.5"/></g></g></svg>