<svg xmlns="http://www.w3.org/2000/svg" viewBox="0 0 58.57 258.2"><defs><style>.cls-1,.cls-3,.cls-4{fill:#002f60;}.cls-2{fill:none;}.cls-2,.cls-3,.cls-4{stroke:#002f60;stroke-miterlimit:10;}.cls-2,.cls-3{stroke-width:0.72px;}.cls-4{stroke-width:0.92px;}</style></defs><g id="Layer_2" data-name="Layer 2"><g id="Layer_2-2" data-name="Layer 2"><path class="cls-1" d="M.26,258.2H8.67a.27.27,0,0,0,0-.53H.26a.27.27,0,0,0,0,.53Z"/><path class="cls-2" d="M47.75,19.09H38.93a1.74,1.74,0,0,1-1.73-1.73v-.82a1.62,1.62,0,0,1,.54-1,5.15,5.15,0,0,0,.55-.46,7.87,7.87,0,0,0,2.27-5.45V7.45a5.07,5.07,0,0,1,5-5.05h2.14"/><path class="cls-2" d="M47.66,19.09h8.82a1.74,1.74,0,0,0,1.73-1.73v-.82a1.66,1.66,0,0,0-.53-1,3.73,3.73,0,0,1-.55-.46,7.78,7.78,0,0,1-2.27-5.45V7.45a5.07,5.07,0,0,0-5-5.05H47.67"/><rect class="cls-3" x="46.46" y="20.07" width="2.49" height="1.71" rx="0.85"/><rect class="cls-4" x="46.76" y="0.46" width="1.89" height="1.66" rx="0.5"/></g></g></svg>