<svg xmlns="http://www.w3.org/2000/svg" width="21.73" height="22.14" viewBox="0 0 21.73 22.14">
  <g id="bell" transform="translate(-36.84)">
    <g id="Layer_2" data-name="Layer 2">
      <path id="Path_798" data-name="Path 798" d="M47.75,19.09H38.93a1.74,1.74,0,0,1-1.73-1.73v-.82a1.62,1.62,0,0,1,.54-1,5.15,5.15,0,0,0,.55-.46,7.87,7.87,0,0,0,2.27-5.45V7.45a5.07,5.07,0,0,1,5-5.05H47.7" fill="none" stroke="#f06601" stroke-miterlimit="10" stroke-width="0.72"/>
      <path id="Path_799" data-name="Path 799" d="M47.66,19.09h8.82a1.74,1.74,0,0,0,1.73-1.73v-.82a1.66,1.66,0,0,0-.53-1,3.73,3.73,0,0,1-.55-.46,7.78,7.78,0,0,1-2.27-5.45V7.45a5.07,5.07,0,0,0-5-5.05H47.67" fill="none" stroke="#f06601" stroke-miterlimit="10" stroke-width="0.72"/>
      <rect id="Rectangle_327" data-name="Rectangle 327" width="2.49" height="1.71" rx="0.85" transform="translate(46.46 20.07)" fill="#f06601" stroke="#f06601" stroke-miterlimit="10" stroke-width="0.72"/>
      <rect id="Rectangle_328" data-name="Rectangle 328" width="1.89" height="1.66" rx="0.5" transform="translate(46.76 0.46)" fill="#f06601" stroke="#f06601" stroke-miterlimit="10" stroke-width="0.92"/>
    </g>
  </g>
</svg>
