<svg xmlns="http://www.w3.org/2000/svg" viewBox="0 0 21.74 21.54"><defs><style>.cls-1{fill:none;}.cls-1,.cls-2{stroke:#0051a8;stroke-miterlimit:10;stroke-width:0.72px;}.cls-2{fill:#0051a8;}</style></defs><g id="Layer_2" data-name="Layer 2"><g id="Layer_2-2" data-name="Layer 2"><path class="cls-1" d="M3.39,15.89H2.11A1.75,1.75,0,0,1,.36,14.15v-12A1.76,1.76,0,0,1,2.11.36H16.6a1.76,1.76,0,0,1,1.75,1.75v12a1.75,1.75,0,0,1-1.75,1.74H8.86l-7,3.32Z"/><path class="cls-2" d="M19.67,6.44v8A2.57,2.57,0,0,1,17.1,17H10a.49.49,0,0,0-.2,0L5.16,19.24a2.35,2.35,0,0,0,1.52.56h6a1,1,0,0,1,.35.06L17,21.17a.21.21,0,0,0,.26-.3l-.28-.58a.34.34,0,0,1,.3-.49H19a2.38,2.38,0,0,0,2.37-2.37V8.72A2.39,2.39,0,0,0,19.67,6.44Z"/></g></g></svg>