<svg xmlns="http://www.w3.org/2000/svg" width="21.73" height="21.554" viewBox="0 0 21.73 21.554">
  <g id="communication" transform="translate(0)">
    <g id="Layer_2" data-name="Layer 2">
      <path id="Path_800" data-name="Path 800" d="M3.39,15.89H2.11A1.75,1.75,0,0,1,.36,14.15v-12A1.76,1.76,0,0,1,2.11.36H16.6a1.76,1.76,0,0,1,1.75,1.75v12a1.75,1.75,0,0,1-1.75,1.74H8.86l-7,3.32Z" fill="none" stroke="#f06601" stroke-miterlimit="10" stroke-width="0.72"/>
      <path id="Path_801" data-name="Path 801" d="M19.67,6.44v8A2.57,2.57,0,0,1,17.1,17H10a.49.49,0,0,0-.2,0L5.16,19.24a2.35,2.35,0,0,0,1.52.56h6a1,1,0,0,1,.35.06L17,21.17a.21.21,0,0,0,.26-.3l-.28-.58a.34.34,0,0,1,.3-.49H19a2.38,2.38,0,0,0,2.37-2.37V8.72a2.39,2.39,0,0,0-1.7-2.28Z" fill="#f06601" stroke="#f06601" stroke-miterlimit="10" stroke-width="0.72"/>
    </g>
  </g>
</svg>
