<svg xmlns="http://www.w3.org/2000/svg" width="21.115" height="17.245" viewBox="0 0 21.115 17.245">
  <g id="darkweb" transform="translate(-0.077)">
    <g id="Layer_7" data-name="Layer 7">
      <path id="Path_802" data-name="Path 802" d="M12.33.35H8.8c-.41,0-.58.28-.74.74l-.94,3L9.67,5.25a2.36,2.36,0,0,0,2,0L14.13,4.1l-1.06-3C12.92.66,12.73.35,12.33.35Z" fill="#f06601" stroke="#f06601" stroke-miterlimit="10" stroke-width="0.7"/>
      <path id="Path_803" data-name="Path 803" d="M9.75,14.58a1,1,0,0,1-.08-.42,2.59,2.59,0,0,1,.77-1.7,2.31,2.31,0,0,1-.77-.2L6.44,10.77a12.589,12.589,0,0,0-1.5-.1,3.54,3.54,0,0,0-2.39.68c-1.41,1.33.27,3.34,1.25,4.33A6.57,6.57,0,0,0,5.43,17a3.33,3.33,0,0,0,2.16.12,8.88,8.88,0,0,0,2.46-.86,4.74,4.74,0,0,0,.6-.39,2.43,2.43,0,0,1-.9-1.29Zm-.31-.65ZM4.26,12.5ZM6.5,15Zm2.05-.53h0l-.16.06a9.18,9.18,0,0,1-.89.28,3.672,3.672,0,0,0-.43.09H6.46l-.15-.08-.18-.13-.28-.23c-.23-.21-.46-.43-.67-.66l-.3-.33-.11-.14h0l-.06-.09a2.67,2.67,0,0,1-.22-.36h.17A11.22,11.22,0,0,1,6.47,13l.46.05h.26a5.83,5.83,0,0,1,1.15.34l.17.07.31.17.21.14h.11l.15.15h0c-.13.07-.25.16-.39.23Z" fill="#f06601"/>
      <path id="Path_804" data-name="Path 804" d="M16.91,10.7a9.66,9.66,0,0,0-2.08.07l-3.22,1.49a2.38,2.38,0,0,1-1.2.2,2.55,2.55,0,0,0-.78,1.7,1.2,1.2,0,0,0,.08.42c.38,1.4,2.21,2.08,3.46,2.41a4.75,4.75,0,0,0,2.18.18,4.12,4.12,0,0,0,1.72-1.11,10,10,0,0,0,1.6-1.83,2.49,2.49,0,0,0,.39-2.44,2.52,2.52,0,0,0-2.15-1.09Zm-.32,2.59s-.21.26,0,.05l-.11.13a8.94,8.94,0,0,1-.66.71c-.2.19-.4.37-.61.54l-.17.13a1.48,1.48,0,0,1-.21.13h-.29a.19.19,0,0,1-.1,0h-.09a7.77,7.77,0,0,1-.95-.24l-.49-.17-.15-.07h-.12a3.75,3.75,0,0,1-.44-.24l-.16-.1L12,14l.13-.12h.05a5.64,5.64,0,0,1,.53-.31l.15-.07.16-.06a4.16,4.16,0,0,1,.5-.16,4.05,4.05,0,0,1,.5-.12h.27a16.65,16.65,0,0,1,1.86-.15h.62Zm.56-.29h.01Z" fill="#f06601"/>
      <path id="Path_805" data-name="Path 805" d="M14.37,14.94h.11C14.4,14.91,14.35,14.92,14.37,14.94Z" fill="#f06601"/>
      <path id="Path_806" data-name="Path 806" d="M17.2,13Z" fill="#f06601"/>
      <path id="Path_807" data-name="Path 807" d="M20.13,6l-5.47-.53-3,1.41a2.36,2.36,0,0,1-2,0l-3-1.41L1.12,6A.77.77,0,0,0,.8,7.42l8.84,4.1a2.36,2.36,0,0,0,2,0l8.83-4.1A.77.77,0,0,0,20.13,6Z" fill="#f06601" stroke="#f06601" stroke-miterlimit="10" stroke-width="0.7"/>
    </g>
  </g>
</svg>
