<svg xmlns="http://www.w3.org/2000/svg" width="14.04" height="17.961" viewBox="0 0 14.04 17.961">
  <g id="delete" transform="translate(0 -0.019)">
    <g id="Layer_2" data-name="Layer 2">
      <path id="Path_808" data-name="Path 808" d="M12.53,5.14h-11a.92.92,0,0,0-.92.92l2,11a.92.92,0,0,0,.92.92H10.7a.93.93,0,0,0,.93-.92l1.88-11a.92.92,0,0,0-.98-.92ZM5.27,16a.84.84,0,0,1-1-.58l-.15-.88c-.35-2-.69-4.05-1-6.08a.83.83,0,0,1,1.6-.44l.15.88c.34,2,.69,4.05,1,6.08A.85.85,0,0,1,5.27,16ZM11,8.5l-.15.88c-.35,2-.69,4-1,6.08a.84.84,0,0,1-1,.58.85.85,0,0,1-.58-1l.15-.88.97-6.1a.83.83,0,0,1,1-.58A.85.85,0,0,1,11,8.5Z" fill="#f06601"/>
      <path id="Path_809" data-name="Path 809" d="M12.75,1.29H8.45a1.44,1.44,0,0,0-2.86,0H1.29a1.29,1.29,0,0,0,0,2.58H12.75a1.29,1.29,0,1,0,0-2.58Z" fill="#f06601"/>
    </g>
  </g>
</svg>
