<svg xmlns="http://www.w3.org/2000/svg" viewBox="0 0 14.04 18"><defs><style>.cls-1{fill:#0072ed;}</style></defs><g id="Layer_2" data-name="Layer 2"><g id="Layer_2-2" data-name="Layer 2"><path class="cls-1" d="M12.53,5.14h-11a.92.92,0,0,0-.92.92l2,11a.92.92,0,0,0,.92.92h7.17a.93.93,0,0,0,.93-.92l1.88-11A.92.92,0,0,0,12.53,5.14ZM5.27,16a.84.84,0,0,1-1-.58l-.15-.88c-.35-2-.69-4.05-1-6.08a.83.83,0,0,1,1.6-.44l.15.88c.34,2,.69,4.05,1,6.08A.85.85,0,0,1,5.27,16ZM11,8.5l-.15.88c-.35,2-.69,4-1,6.08a.84.84,0,0,1-1,.58.85.85,0,0,1-.58-1l.15-.88L9.39,8.06a.83.83,0,0,1,1-.58A.85.85,0,0,1,11,8.5Z"/><path class="cls-1" d="M12.75,1.29H8.45a1.44,1.44,0,0,0-2.86,0H1.29a1.29,1.29,0,0,0,0,2.58H12.75a1.29,1.29,0,0,0,0-2.58Z"/></g></g></svg>