<svg xmlns="http://www.w3.org/2000/svg" viewBox="0 0 23.17 22.15"><defs><style>.cls-1{fill:none;stroke:#0072ed;stroke-miterlimit:10;stroke-width:0.73px;}.cls-2{fill:#0072ed;}</style></defs><g id="Layer_2" data-name="Layer 2"><g id="Layer_2-2" data-name="Layer 2"><path class="cls-1" d="M12.1,16.92a.92.92,0,0,1-.28.19L10,18a.35.35,0,0,1-.46-.47l.88-1.77a.86.86,0,0,1,.21-.29L17,9.07V2.21A1.84,1.84,0,0,0,15.19.37h-13A1.84,1.84,0,0,0,.37,2.21V19.94a1.84,1.84,0,0,0,1.84,1.84h13A1.84,1.84,0,0,0,17,19.94V12.05Z"/><path class="cls-1" d="M11.82,17.11,10,18a.35.35,0,0,1-.46-.47l.88-1.77a.86.86,0,0,1,.21-.29L21.14,5a.52.52,0,0,1,.73,0l.78.77a.51.51,0,0,1,0,.72L12.1,16.92A.92.92,0,0,1,11.82,17.11Z"/><line class="cls-1" x1="19.8" y1="6.27" x2="21.26" y2="7.72"/><line class="cls-1" x1="10.45" y1="15.46" x2="12.02" y2="17.01"/><path class="cls-2" d="M3.12,3.72H14.28a.37.37,0,0,0,0-.73H3.12a.37.37,0,0,0,0,.73Z"/><path class="cls-2" d="M3.12,7.61H14.28a.37.37,0,0,0,0-.74H3.12a.37.37,0,0,0,0,.74Z"/><path class="cls-2" d="M3.12,11.49h9.5a.37.37,0,0,0,0-.73H3.12a.37.37,0,0,0,0,.73Z"/><path class="cls-2" d="M3.12,19.26H14.28a.37.37,0,0,0,0-.73H3.12a.37.37,0,0,0,0,.73Z"/><path class="cls-2" d="M3.12,15.38H9.21a.37.37,0,0,0,0-.73H3.12a.37.37,0,0,0,0,.73Z"/></g></g></svg>