<svg xmlns="http://www.w3.org/2000/svg" width="23.211" height="22.14" viewBox="0 0 23.211 22.14">
  <g id="docs" transform="translate(-0.005 -0.005)">
    <g id="Layer_2" data-name="Layer 2">
      <path id="Path_810" data-name="Path 810" d="M12.1,16.92a.92.92,0,0,1-.28.19L10,18a.35.35,0,0,1-.46-.47l.88-1.77a.86.86,0,0,1,.21-.29L17,9.07V2.21A1.84,1.84,0,0,0,15.19.37h-13A1.84,1.84,0,0,0,.37,2.21V19.94a1.84,1.84,0,0,0,1.84,1.84h13A1.84,1.84,0,0,0,17,19.94V12.05Z" fill="none" stroke="#f06601" stroke-miterlimit="10" stroke-width="0.73"/>
      <path id="Path_811" data-name="Path 811" d="M11.82,17.11,10,18a.35.35,0,0,1-.46-.47l.88-1.77a.86.86,0,0,1,.21-.29L21.14,5a.52.52,0,0,1,.73,0l.78.77a.51.51,0,0,1,0,.72L12.1,16.92a.92.92,0,0,1-.28.19Z" fill="none" stroke="#f06601" stroke-miterlimit="10" stroke-width="0.73"/>
      <line id="Line_32" data-name="Line 32" x2="1.46" y2="1.45" transform="translate(19.8 6.27)" fill="none" stroke="#f06601" stroke-miterlimit="10" stroke-width="0.73"/>
      <line id="Line_33" data-name="Line 33" x2="1.57" y2="1.55" transform="translate(10.45 15.46)" fill="none" stroke="#f06601" stroke-miterlimit="10" stroke-width="0.73"/>
      <path id="Path_812" data-name="Path 812" d="M3.12,3.72H14.28a.37.37,0,0,0,0-.73H3.12a.37.37,0,0,0,0,.73Z" fill="#f06601"/>
      <path id="Path_813" data-name="Path 813" d="M3.12,7.61H14.28a.37.37,0,1,0,0-.74H3.12a.37.37,0,0,0,0,.74Z" fill="#f06601"/>
      <path id="Path_814" data-name="Path 814" d="M3.12,11.49h9.5a.37.37,0,0,0,0-.73H3.12a.37.37,0,0,0,0,.73Z" fill="#f06601"/>
      <path id="Path_815" data-name="Path 815" d="M3.12,19.26H14.28a.37.37,0,0,0,0-.73H3.12a.37.37,0,0,0,0,.73Z" fill="#f06601"/>
      <path id="Path_816" data-name="Path 816" d="M3.12,15.38H9.21a.37.37,0,0,0,0-.73H3.12a.37.37,0,0,0,0,.73Z" fill="#f06601"/>
    </g>
  </g>
</svg>
