<svg xmlns="http://www.w3.org/2000/svg" viewBox="0 0 22.71 22.03"><defs><style>.cls-1{fill:none;}.cls-1,.cls-2{stroke:#002f60;stroke-miterlimit:10;stroke-width:0.72px;}.cls-2,.cls-3{fill:#002f60;}</style></defs><g id="Layer_2" data-name="Layer 2"><g id="Layer_2-2" data-name="Layer 2"><path class="cls-1" d="M16.74,8.36a.87.87,0,0,1-.79.51H7.15c-1.46,0-2.06,1.18-2.66,2.66L1.56,18.44a2.07,2.07,0,0,0,0,1.74A2.66,2.66,0,0,0,4,21.67h11.7a3.33,3.33,0,0,0,3-2.32l2.85-7.82.79-2.46a1.14,1.14,0,0,0-.92-1.54H18A1.35,1.35,0,0,0,16.74,8.36Z"/><path class="cls-1" d="M4.49,11.53c.6-1.48,1.2-2.66,2.66-2.66h8.54V2.24A1.88,1.88,0,0,0,13.81.36H5.3A1.89,1.89,0,0,0,3.41,2.24V14.06Z"/><path class="cls-2" d="M1.59,20.18a2.07,2.07,0,0,1,0-1.74l1.85-4.38V6.73h-.6A2.46,2.46,0,0,0,.36,9.19v9.89a2.45,2.45,0,0,0,2.45,2.45h.34A2.64,2.64,0,0,1,1.59,20.18Z"/><path class="cls-2" d="M16,8.87a.87.87,0,0,0,.79-.51,1.37,1.37,0,0,1,1-.79V7.46A2.43,2.43,0,0,0,16,6.73h-.3V8.87Z"/><path class="cls-3" d="M5.46,3.11h8.41a.27.27,0,0,0,0-.53H5.46a.27.27,0,0,0,0,.53Z"/><path class="cls-3" d="M5.46,6.71h8.41a.27.27,0,0,0,0-.54H5.46a.27.27,0,0,0,0,.54Z"/></g></g></svg>