<svg xmlns="http://www.w3.org/2000/svg" viewBox="0 0 14.67 15.95"><defs><style>.cls-1{fill:#fbbc48;}.cls-2{fill:#0072ed;}</style></defs><g id="Layer_2" data-name="Layer 2"><g id="Layer_2-2" data-name="Layer 2"><line class="cls-1" x1="7.33" y1="1.07" x2="7.33" y2="11.38"/><path class="cls-2" d="M6.22,1.07V11.38a1.11,1.11,0,0,0,2.21,0V1.07a1.11,1.11,0,0,0-2.21,0Z"/><path class="cls-2" d="M1.87,8.05,6,12l.57.55A1.11,1.11,0,0,0,8.11,11L4,7.05l-.57-.56a1.13,1.13,0,0,0-1.57,0,1.13,1.13,0,0,0,0,1.56Z"/><path class="cls-2" d="M11.23,6.49,7.14,10.42,6.56,11a1.1,1.1,0,0,0,1.56,1.56l4.1-3.93.57-.56a1.1,1.1,0,0,0,0-1.56,1.12,1.12,0,0,0-1.56,0Z"/><path class="cls-2" d="M1.07,16H13.6a1.11,1.11,0,0,0,0-2.21H1.07a1.11,1.11,0,0,0,0,2.21Z"/></g></g></svg>