<svg xmlns="http://www.w3.org/2000/svg" width="14.54" height="15.935" viewBox="0 0 14.54 15.935">
  <g id="download" transform="translate(-0.065 -0.065)">
    <g id="Layer_2" data-name="Layer 2">
      <line id="Line_34" data-name="Line 34" y2="10.31" transform="translate(7.33 1.07)" fill="#fbbc48"/>
      <path id="Path_823" data-name="Path 823" d="M6.22,1.07V11.38a1.11,1.11,0,0,0,2.21,0V1.07a1.11,1.11,0,0,0-2.21,0Z" fill="#f06601"/>
      <path id="Path_824" data-name="Path 824" d="M1.87,8.05,6,12l.57.55A1.11,1.11,0,0,0,8.11,11L4,7.05l-.57-.56a1.13,1.13,0,0,0-1.57,0,1.13,1.13,0,0,0,0,1.56Z" fill="#f06601"/>
      <path id="Path_825" data-name="Path 825" d="M11.23,6.49,7.14,10.42,6.56,11a1.1,1.1,0,0,0,1.56,1.56l4.1-3.93.57-.56a1.1,1.1,0,0,0,0-1.56,1.12,1.12,0,0,0-1.56,0Z" fill="#f06601"/>
      <path id="Path_826" data-name="Path 826" d="M1.07,16H13.6a1.11,1.11,0,0,0,0-2.21H1.07a1.11,1.11,0,0,0,0,2.21Z" fill="#f06601"/>
    </g>
  </g>
</svg>
