<svg xmlns="http://www.w3.org/2000/svg" width="13.332" height="17.234" viewBox="0 0 13.332 17.234">
  <g id="edit" transform="translate(0.024 -0.002)">
    <g id="Layer_2" data-name="Layer 2">
      <path id="Path_827" data-name="Path 827" d="M7.82,2.49,1.49,11.28a.29.29,0,0,0,.06.41l3.32,2.39A.29.29,0,0,0,5.28,14L11.6,5.24a.28.28,0,0,0-.06-.4L8.23,2.43a.29.29,0,0,0-.41.06Z" fill="#f06601"/>
      <path id="Path_828" data-name="Path 828" d="M1.08,12.9,0,16.56a.52.52,0,0,0,.81.57l3.06-2.21a.14.14,0,0,0,0-.22l-2.6-1.87a.14.14,0,0,0-.19.07Z" fill="#f06601"/>
      <path id="Path_829" data-name="Path 829" d="M12.94,1.85,10.6.17a.9.9,0,0,0-1.25.2l-.69,1a.06.06,0,0,0,0,.08l3.7,2.65a.06.06,0,0,0,.08,0l.7-1a.9.9,0,0,0-.2-1.25Z" fill="#f06601"/>
    </g>
  </g>
</svg>
