<svg xmlns="http://www.w3.org/2000/svg" viewBox="0 0 13.31 17.23"><defs><style>.cls-1{fill:#0072ed;}</style></defs><g id="Layer_2" data-name="Layer 2"><g id="Layer_2-2" data-name="Layer 2"><path class="cls-1" d="M7.82,2.49,1.49,11.28a.29.29,0,0,0,.06.41l3.32,2.39A.29.29,0,0,0,5.28,14L11.6,5.24a.28.28,0,0,0-.06-.4L8.23,2.43A.29.29,0,0,0,7.82,2.49Z"/><path class="cls-1" d="M1.08,12.9,0,16.56a.52.52,0,0,0,.81.57l3.06-2.21a.14.14,0,0,0,0-.22l-2.6-1.87A.14.14,0,0,0,1.08,12.9Z"/><path class="cls-1" d="M12.94,1.85,10.6.17a.9.9,0,0,0-1.25.2l-.69,1a.06.06,0,0,0,0,.08L12.36,4.1a.06.06,0,0,0,.08,0l.7-1A.9.9,0,0,0,12.94,1.85Z"/></g></g></svg>