<svg xmlns="http://www.w3.org/2000/svg" viewBox="0 0 21.5 20.88"><defs><style>.cls-1{fill:#0051a8;}.cls-2{fill:none;stroke:#0051a8;stroke-miterlimit:10;stroke-width:0.72px;}</style></defs><g id="Layer_2" data-name="Layer 2"><g id="Layer_2-2" data-name="Layer 2"><path class="cls-1" d="M7,4.1h7.57a.27.27,0,0,0,0-.54H7A.27.27,0,0,0,7,4.1Z"/><path class="cls-1" d="M7,7h7.57a.27.27,0,0,0,0-.54H7A.27.27,0,0,0,7,7Z"/><path class="cls-1" d="M7,10h7.57a.27.27,0,0,0,0-.54H7A.27.27,0,0,0,7,10Z"/><path class="cls-1" d="M9.06,1,9.78.42a1.33,1.33,0,0,1,1.94,0l.73.59"/><path class="cls-2" d="M16.84,4.54l3.83,3.07a1.72,1.72,0,0,1,.47,1.17v9.84a1.9,1.9,0,0,1-1.9,1.9h-17a1.9,1.9,0,0,1-1.9-1.9V8.8A1.71,1.71,0,0,1,.54,8a1.84,1.84,0,0,1,.3-.43l4-3.21"/><path class="cls-2" d="M4.73,10.35V2.86A1.9,1.9,0,0,1,6.63,1h8.24a1.9,1.9,0,0,1,1.9,1.89v7.4"/><path class="cls-2" d="M.54,8l9.55,5.07a1.4,1.4,0,0,0,1.32,0L21,8"/><polygon class="cls-1" points="4.53 4.76 0.74 7.82 4.57 9.99 4.53 4.76"/><polygon class="cls-1" points="16.8 4.76 20.59 7.82 16.77 9.99 16.8 4.76"/></g></g></svg>