<svg xmlns="http://www.w3.org/2000/svg" viewBox="0 0 21.46 21.5"><defs><style>.cls-1{fill:none;}.cls-1,.cls-2{stroke:#0051a8;stroke-miterlimit:10;stroke-width:0.72px;}.cls-2,.cls-3{fill:#0051a8;}</style></defs><g id="Layer_2" data-name="Layer 2"><g id="Layer_2-2" data-name="Layer 2"><circle class="cls-1" cx="5.47" cy="3.82" r="3.46"/><rect class="cls-1" x="10.88" y="9.28" width="10.22" height="11.86" rx="2.49"/><circle class="cls-2" cx="15.99" cy="3.82" r="3.46"/><path class="cls-2" d="M8.09,9.28H2.85A2.5,2.5,0,0,0,.36,11.77v6.89a2.49,2.49,0,0,0,2.49,2.48H8.09a2.49,2.49,0,0,0,2.49-2.48V11.77A2.5,2.5,0,0,0,8.09,9.28ZM6.4,15.15v1.72a.29.29,0,0,1-.29.29H4.83a.29.29,0,0,1-.29-.29V12.56a.29.29,0,0,1,.29-.29H6.11a.29.29,0,0,1,.29.29Zm.24-3.84a.51.51,0,0,1-.51.51H4.81a.51.51,0,0,1-.51-.51v-.56a.51.51,0,0,1,.51-.51H6.13a.51.51,0,0,1,.51.51Z"/><rect class="cls-3" x="14.83" y="10.24" width="2.34" height="1.58" rx="0.51"/><path class="cls-3" d="M16.64,17.16H15.35a.29.29,0,0,1-.29-.29V12.56a.29.29,0,0,1,.29-.29h1.29a.29.29,0,0,1,.29.29v4.31A.29.29,0,0,1,16.64,17.16Z"/></g></g></svg>