<svg id="employees" xmlns="http://www.w3.org/2000/svg" width="21.46" height="21.5" viewBox="0 0 21.46 21.5">
  <g id="Layer_2" data-name="Layer 2">
    <circle id="Ellipse_42" data-name="Ellipse 42" cx="3.46" cy="3.46" r="3.46" transform="translate(2.01 0.36)" fill="none" stroke="#f06601" stroke-miterlimit="10" stroke-width="0.72"/>
    <rect id="Rectangle_333" data-name="Rectangle 333" width="10.22" height="11.86" rx="2.49" transform="translate(10.88 9.28)" fill="none" stroke="#f06601" stroke-miterlimit="10" stroke-width="0.72"/>
    <circle id="Ellipse_43" data-name="Ellipse 43" cx="3.46" cy="3.46" r="3.46" transform="translate(12.53 0.36)" fill="#f06601" stroke="#f06601" stroke-miterlimit="10" stroke-width="0.72"/>
    <path id="Path_839" data-name="Path 839" d="M8.09,9.28H2.85A2.5,2.5,0,0,0,.36,11.77v6.89a2.49,2.49,0,0,0,2.49,2.48H8.09a2.49,2.49,0,0,0,2.49-2.48V11.77A2.5,2.5,0,0,0,8.09,9.28ZM6.4,15.15v1.72a.29.29,0,0,1-.29.29H4.83a.29.29,0,0,1-.29-.29V12.56a.29.29,0,0,1,.29-.29H6.11a.29.29,0,0,1,.29.29Zm.24-3.84a.51.51,0,0,1-.51.51H4.81a.51.51,0,0,1-.51-.51v-.56a.51.51,0,0,1,.51-.51H6.13a.51.51,0,0,1,.51.51Z" fill="#f06601" stroke="#f06601" stroke-miterlimit="10" stroke-width="0.72"/>
    <rect id="Rectangle_334" data-name="Rectangle 334" width="2.34" height="1.58" rx="0.51" transform="translate(14.83 10.24)" fill="#f06601"/>
    <path id="Path_840" data-name="Path 840" d="M16.64,17.16H15.35a.29.29,0,0,1-.29-.29V12.56a.29.29,0,0,1,.29-.29h1.29a.29.29,0,0,1,.29.29v4.31a.29.29,0,0,1-.29.29Z" fill="#f06601"/>
  </g>
</svg>
