<svg xmlns="http://www.w3.org/2000/svg" viewBox="0 0 22.08 22.53"><defs><style>.cls-1{fill:#002f60;}</style></defs><g id="Layer_2" data-name="Layer 2"><g id="Layer_2-2" data-name="Layer 2"><path class="cls-1" d="M2,20.84H18.11a.27.27,0,0,0,0-.54H2a.27.27,0,0,0,0,.54Z"/><path class="cls-1" d="M3.46,19.3h9.06a.27.27,0,0,0,0-.54H3.46a.27.27,0,0,0,0,.54Z"/><path class="cls-1" d="M15.93,19.3h1.7a.27.27,0,1,0,0-.54h-1.7a.28.28,0,0,0-.27.27.28.28,0,0,0,.27.27Z"/><path class="cls-1" d="M19.2,17.37v4.7a.38.38,0,0,0,.75,0v-4.7a.38.38,0,0,0-.75,0Z"/><path class="cls-1" d="M2.72,17.76h18.9a.4.4,0,0,0,.39-.39V5.57c0-1.32.35-3.4-.49-4.54s-2.62-1-4-1H3.7c-.4,0-.79,0-1.19,0A2.55,2.55,0,0,0,0,2.5C0,3.78,0,5.09,0,6.37v13.3a.39.39,0,0,0,.78,0,2,2,0,0,1,1.91-1.91c.5,0,.5-.81,0-.78A2.78,2.78,0,0,0,0,19.67H.81V3.31A3.59,3.59,0,0,1,1,1.85C1.35.92,2.2.8,3.06.8H15.55c1.31,0,2.65-.08,4,0,2.15.14,1.72,2.61,1.72,4.1V17.37l.39-.39H2.72A.39.39,0,0,0,2.72,17.76Z"/><path class="cls-1" d="M21.56,21.68H4.32c-1.48,0-3.38.16-3.51-1.91,0-.5-.81-.5-.78,0,.22,3.46,4.44,2.69,6.82,2.69H21.56a.39.39,0,0,0,0-.78Z"/><path class="cls-1" d="M21.56,21.68H2.91a.39.39,0,0,0,0,.78H21.56a.39.39,0,0,0,0-.78Z"/><path class="cls-1" d="M21.57,17.71a.39.39,0,0,0,0-.78.39.39,0,0,0,0,.78Z"/><path class="cls-1" d="M3.16.41V17.23a.3.3,0,0,0,.6,0V.41a.3.3,0,0,0-.6,0Z"/><path class="cls-1" d="M11.3,10.5a3.37,3.37,0,0,1,.2-1.31,2.51,2.51,0,0,1,.73-1,3.93,3.93,0,0,0,.7-.77,1.21,1.21,0,0,0,.18-.63c0-.66-.31-1-.92-1a.9.9,0,0,0-.69.27,1,1,0,0,0-.27.74H9.53a2.3,2.3,0,0,1,.72-1.76,2.83,2.83,0,0,1,1.94-.63,2.84,2.84,0,0,1,1.93.6,2.14,2.14,0,0,1,.69,1.7,2,2,0,0,1-.23.94,3.58,3.58,0,0,1-.77,1l-.48.45a1.59,1.59,0,0,0-.51,1l0,.36Zm-.17,1.79a.85.85,0,0,1,.26-.64,1,1,0,0,1,1.37,0,.82.82,0,0,1,.27.64.87.87,0,0,1-.26.64,1,1,0,0,1-.69.25.93.93,0,0,1-.69-.25A.83.83,0,0,1,11.13,12.29Z"/></g></g></svg>