<?xml version="1.0" encoding="utf-8"?>
<!-- Generator: Adobe Illustrator 25.2.0, SVG Export Plug-In . SVG Version: 6.00 Build 0)  -->
<svg version="1.1" id="Layer_1" xmlns="http://www.w3.org/2000/svg" xmlns:xlink="http://www.w3.org/1999/xlink" x="0px" y="0px"
	 viewBox="0 0 21.9 21.9" style="enable-background:new 0 0 21.9 21.9;" xml:space="preserve">
<style type="text/css">
	.st0{fill:#002F60;stroke:#FFFFFF;stroke-miterlimit:10;}
	.st1{fill:#FFFFFF;stroke:#FFFFFF;stroke-width:0.72;stroke-miterlimit:10;}
	.st2{fill:none;stroke:#FFFFFF;stroke-width:0.72;stroke-miterlimit:10;}
</style>
<g id="Layer_2_1_">
	<g id="Layer_2-2">
		<path class="st0" d="M8.6,3.6h8.5c0.1,0,0.3-0.1,0.3-0.3c0-0.1-0.1-0.3-0.3-0.3H8.6C8.4,3,8.3,3.2,8.3,3.3
			C8.3,3.5,8.4,3.6,8.6,3.6z"/>
		<path class="st0" d="M8.6,9.9h4.2c0.1,0,0.3-0.1,0.3-0.3c0-0.1-0.1-0.3-0.3-0.3H8.6c-0.1,0-0.3,0.1-0.3,0.3
			C8.3,9.7,8.4,9.9,8.6,9.9z"/>
		<path class="st0" d="M16.5,9.9h0.6c0.1,0,0.1,0,0.2-0.1c0.1,0,0.1-0.1,0.1-0.2c0-0.1-0.1-0.3-0.3-0.3h-0.6c-0.1,0-0.1,0-0.2,0.1
			c0,0.1-0.1,0.1-0.1,0.2C16.2,9.7,16.3,9.9,16.5,9.9z"/>
		<path class="st0" d="M8.6,16.6H9c0.1,0,0.1,0,0.2-0.1c0-0.1,0.1-0.1,0.1-0.2c0-0.1,0-0.1-0.1-0.2C9.2,16.1,9.1,16,9,16H8.6
			c-0.1,0-0.1,0-0.2,0.1c-0.1,0.1-0.1,0.3,0,0.4C8.4,16.5,8.5,16.5,8.6,16.6L8.6,16.6z"/>
		<path class="st1" d="M21.4,19.4l-5.3-8.9c-0.4-0.7-1.3-0.9-2-0.5c-0.2,0.1-0.4,0.3-0.5,0.5l-5.3,8.9c-0.4,0.7-0.2,1.6,0.5,2
			c0.2,0.1,0.5,0.2,0.8,0.2h10.5c0.8,0,1.5-0.7,1.5-1.5C21.6,19.8,21.5,19.6,21.4,19.4z M14,13.6c0-0.2,0.2-0.3,0.5-0.3h0.7
			c0.3,0,0.5,0.1,0.5,0.3v3.9c0,0.2-0.2,0.3-0.5,0.3h-0.7c-0.3,0-0.5-0.1-0.5-0.3V13.6z M15.7,19.6c0,0.2-0.2,0.4-0.5,0.4h-0.6
			c-0.3,0-0.5-0.2-0.5-0.4v-0.3c0-0.2,0.2-0.4,0.5-0.4h0.6c0.3,0,0.5,0.2,0.5,0.4V19.6z"/>
		<path class="st2" d="M8.2,19.4l5.3-8.9c0.4-0.7,1.3-0.9,2-0.5c0.2,0.1,0.4,0.3,0.5,0.5l3.7,6.2V2.3c0-1-0.9-1.9-1.9-1.9H2.3
			c-1,0-1.9,0.9-1.9,1.9l0,0v15.5c0,1,0.9,1.9,1.9,1.9h5.8C8.1,19.6,8.1,19.5,8.2,19.4z"/>
		<path class="st0" d="M2.3,3.8l1.1,1.1C3.5,5,3.7,5,3.8,4.9l1.8-2l0.2-0.3C6,2.3,5.6,1.9,5.4,2.2l-1.8,2L3.4,4.5h0.4L2.7,3.4
			c-0.1-0.1-0.3-0.1-0.4,0C2.3,3.6,2.3,3.7,2.3,3.8z"/>
		<path class="st0" d="M2.3,9.8l1.1,1.1c0.1,0.1,0.3,0.1,0.4,0l1.8-2l0.2-0.3C6,8.3,5.6,7.9,5.4,8.2l-1.8,2l-0.2,0.3h0.4L2.7,9.4
			c-0.1-0.1-0.3-0.1-0.4,0C2.3,9.5,2.3,9.7,2.3,9.8z"/>
		<path class="st0" d="M2.3,15.7l1.1,1.1c0.1,0.1,0.3,0.1,0.4,0l1.8-2l0.2-0.3c0.2-0.3-0.2-0.6-0.4-0.4l-1.8,2l-0.2,0.3h0.4
			l-1.1-1.1c-0.1-0.1-0.3-0.1-0.4,0C2.3,15.5,2.3,15.6,2.3,15.7z"/>
	</g>
</g>
</svg>
