<svg xmlns="http://www.w3.org/2000/svg" viewBox="0 0 22.83 15.72"><defs><style>.cls-1{fill:none;stroke:#002f60;stroke-miterlimit:10;stroke-width:2.88px;}.cls-2{fill:#002f60;}</style></defs><g id="Layer_2" data-name="Layer 2"><g id="Layer_2-2" data-name="Layer 2"><path class="cls-1" d="M11.25,4.57c0,1.46-4.4,2.8-5.71,2.55-.93-.18-4.06-3.18-4.06-4.64s3.64-1,5.39-.8S11.25,3.1,11.25,4.57Z"/><path class="cls-1" d="M11.62,4.57c0,1.46,4.41,2.8,5.72,2.55.93-.18,4.05-3.18,4.05-4.64s-3.64-1-5.39-.8S11.62,3.1,11.62,4.57Z"/><path class="cls-2" d="M0,2.5l0,11V15a.72.72,0,0,0,1.44,0l0-11V2.5A.72.72,0,0,0,0,2.5Z"/></g></g></svg>