<svg xmlns="http://www.w3.org/2000/svg" viewBox="0 0 22.34 22.38"><defs><style>.cls-1{fill:none;stroke-width:0.72px;}.cls-1,.cls-2{stroke:#0051a8;stroke-miterlimit:10;}.cls-2,.cls-3{fill:#0051a8;}.cls-2{stroke-width:0.72px;}</style></defs><g id="Layer_2" data-name="Layer 2"><g id="Layer_2-2" data-name="Layer 2"><rect class="cls-1" x="0.36" y="0.36" width="17.13" height="21.66" rx="2.02"/><path class="cls-2" d="M17.19,18.59a.5.5,0,0,0,.59,0,24.42,24.42,0,0,0,3.34-2.7A3.05,3.05,0,0,0,22,13.78V10a.39.39,0,0,0-.4-.39,10.33,10.33,0,0,1-2.13-.13,4.7,4.7,0,0,1-1.7-1.23.41.41,0,0,0-.61,0A4.31,4.31,0,0,1,15.5,9.44a9.74,9.74,0,0,1-2.08.13A.45.45,0,0,0,13,10v3.77a3.05,3.05,0,0,0,.86,2.11A23.8,23.8,0,0,0,17.19,18.59Z"/><path class="cls-3" d="M2.36,3.57H15A.27.27,0,0,0,15,3H2.36a.27.27,0,0,0,0,.54Z"/><path class="cls-3" d="M2.36,6.85H15a.27.27,0,0,0,0-.54H2.36a.27.27,0,0,0,0,.54Z"/><path class="cls-3" d="M2.36,10.14h8.32a.27.27,0,0,0,0-.54H2.36a.27.27,0,0,0,0,.54Z"/><path class="cls-3" d="M2.36,13.43h8.16a.27.27,0,0,0,0-.54H2.36a.27.27,0,0,0,0,.54Z"/><path class="cls-3" d="M2.36,16.72h9.09a.27.27,0,0,0,0-.54H2.36a.27.27,0,0,0,0,.54Z"/><path class="cls-3" d="M2.36,20H15a.27.27,0,0,0,0-.54H2.36a.27.27,0,0,0,0,.54Z"/></g></g></svg>