<svg id="master-policies" xmlns="http://www.w3.org/2000/svg" width="22.36" height="22.38" viewBox="0 0 22.36 22.38">
  <g id="Layer_2" data-name="Layer 2">
    <rect id="Rectangle_311" data-name="Rectangle 311" width="17.13" height="21.66" rx="2.02" transform="translate(0.36 0.36)" fill="none" stroke="#f06601" stroke-miterlimit="10" stroke-width="0.72"/>
    <path id="Path_714" data-name="Path 714" d="M17.19,18.59a.5.5,0,0,0,.59,0,24.42,24.42,0,0,0,3.34-2.7A3.05,3.05,0,0,0,22,13.78V10a.39.39,0,0,0-.4-.39,10.33,10.33,0,0,1-2.13-.13,4.7,4.7,0,0,1-1.7-1.23.41.41,0,0,0-.61,0A4.31,4.31,0,0,1,15.5,9.44a9.74,9.74,0,0,1-2.08.13A.45.45,0,0,0,13,10v3.77a3.05,3.05,0,0,0,.86,2.11,23.8,23.8,0,0,0,3.33,2.71Z" fill="#f06601" stroke="#f06601" stroke-miterlimit="10" stroke-width="0.72"/>
    <path id="Path_715" data-name="Path 715" d="M2.36,3.57H15A.285.285,0,0,0,15,3H2.36a.27.27,0,0,0,0,.54Z" fill="#f06601"/>
    <path id="Path_716" data-name="Path 716" d="M2.36,6.85H15a.27.27,0,1,0,0-.54H2.36a.27.27,0,0,0,0,.54Z" fill="#f06601"/>
    <path id="Path_717" data-name="Path 717" d="M2.36,10.14h8.32a.27.27,0,1,0,0-.54H2.36a.27.27,0,0,0,0,.54Z" fill="#f06601"/>
    <path id="Path_718" data-name="Path 718" d="M2.36,13.43h8.16a.27.27,0,1,0,0-.54H2.36a.27.27,0,0,0,0,.54Z" fill="#f06601"/>
    <path id="Path_719" data-name="Path 719" d="M2.36,16.72h9.09a.27.27,0,0,0,0-.54H2.36a.27.27,0,1,0,0,.54Z" fill="#f06601"/>
    <path id="Path_720" data-name="Path 720" d="M2.36,20H15a.27.27,0,0,0,0-.54H2.36a.27.27,0,1,0,0,.54Z" fill="#f06601"/>
  </g>
</svg>
