<svg xmlns="http://www.w3.org/2000/svg" viewBox="0 0 21.51 22.22"><defs><style>.cls-1{fill:none;}.cls-1,.cls-2{stroke:#002f60;stroke-miterlimit:10;stroke-width:0.72px;}.cls-2{fill:#002f60;}</style></defs><g id="Layer_2" data-name="Layer 2"><g id="Layer_2-2" data-name="Layer 2"><circle class="cls-1" cx="10.75" cy="5.54" r="5.18"/><path class="cls-2" d="M18.11,11.75H3.4a3,3,0,0,0-3,3v4a3,3,0,0,0,3,3H18.11a3,3,0,0,0,3-3v-4A3,3,0,0,0,18.11,11.75ZM11.79,17.8v1.92a.32.32,0,0,1-.32.32H10a.32.32,0,0,1-.32-.32V14.93a.32.32,0,0,1,.32-.32h1.43a.32.32,0,0,1,.32.32Zm.26-4.2a.51.51,0,0,1-.51.51H10a.51.51,0,0,1-.51-.51v-.74a.4.4,0,0,1,0-.15H12a.4.4,0,0,1,0,.15Z"/></g></g></svg>