<svg xmlns="http://www.w3.org/2000/svg" width="21.43" height="22.11" viewBox="0 0 21.43 22.11">
  <g id="partners" transform="translate(-0.04)">
    <g id="Layer_2" data-name="Layer 2">
      <circle id="Ellipse_38" data-name="Ellipse 38" cx="5.18" cy="5.18" r="5.18" transform="translate(5.57 0.36)" fill="none" stroke="#f06601" stroke-miterlimit="10" stroke-width="0.72"/>
      <path id="Path_728" data-name="Path 728" d="M18.11,11.75H3.4a3,3,0,0,0-3,3v4a3,3,0,0,0,3,3H18.11a3,3,0,0,0,3-3v-4a3,3,0,0,0-3-3ZM11.79,17.8v1.92a.32.32,0,0,1-.32.32H10a.32.32,0,0,1-.32-.32V14.93a.32.32,0,0,1,.32-.32h1.43a.32.32,0,0,1,.32.32Zm.26-4.2a.51.51,0,0,1-.51.51H10a.51.51,0,0,1-.51-.51v-.74a.4.4,0,0,1,0-.15H12a.4.4,0,0,1,0,.15Z" fill="#f06601" stroke="#f06601" stroke-miterlimit="10" stroke-width="0.72"/>
    </g>
  </g>
</svg>
