<svg xmlns="http://www.w3.org/2000/svg" viewBox="0 0 22.05 21.82"><defs><style>.cls-1,.cls-2{fill:#0051a8;}.cls-1{stroke:#0051a8;stroke-miterlimit:10;stroke-width:0.72px;}</style></defs><g id="Layer_2" data-name="Layer 2"><g id="Layer_2-2" data-name="Layer 2"><path class="cls-1" d="M3.32,3.85,3.25,2.77a.41.41,0,0,1,.59-.4l1,.48a.41.41,0,0,1,.05.71l-.9.6A.41.41,0,0,1,3.32,3.85Z"/><path class="cls-2" d="M18.93,6.7H10.05A3.13,3.13,0,0,0,6.93,9.82V18.7a3.12,3.12,0,0,0,3.12,3.12h8.88a3.12,3.12,0,0,0,3.12-3.12V9.82A3.13,3.13,0,0,0,18.93,6.7Zm-5.36,3.86A3.45,3.45,0,0,1,10.15,14h-2v-.83h2a2.62,2.62,0,0,0,2.59-2.65V8h.83Z"/><polygon class="cls-2" points="12.74 10.56 12.75 7.97 13.57 7.97 13.57 5.01 13.5 0 12.68 0.01 12.74 5.01 12.74 10.56"/><path class="cls-2" d="M10.15,13.21l.21,0-.21,0H3.42A2.59,2.59,0,0,1,.83,10.62V6.47A2.68,2.68,0,0,1,3.51,3.79V3A3.52,3.52,0,0,0,0,6.47v4.15A3.42,3.42,0,0,0,3.42,14H8.11v-.83Z"/><path class="cls-2" d="M10.15,14a3.42,3.42,0,0,0,3.42-3.42v-.06A3.45,3.45,0,0,1,10.15,14Z"/></g></g></svg>