<svg id="phishing" xmlns="http://www.w3.org/2000/svg" width="22.05" height="21.82" viewBox="0 0 22.05 21.82">
  <g id="Layer_2" data-name="Layer 2">
    <path id="Path_729" data-name="Path 729" d="M3.32,3.85,3.25,2.77a.41.41,0,0,1,.59-.4l1,.48a.41.41,0,0,1,.05.71l-.9.6a.41.41,0,0,1-.67-.31Z" fill="#f06601"/>
    <path id="Path_730" data-name="Path 730" d="M18.93,6.7H10.05A3.13,3.13,0,0,0,6.93,9.82V18.7a3.12,3.12,0,0,0,3.12,3.12h8.88a3.12,3.12,0,0,0,3.12-3.12V9.82A3.13,3.13,0,0,0,18.93,6.7Zm-5.36,3.86A3.45,3.45,0,0,1,10.15,14h-2v-.83h2a2.62,2.62,0,0,0,2.59-2.65V8h.83Z" fill="#f06601"/>
    <path id="Path_731" data-name="Path 731" d="M12.74,10.56l.01-2.59h.82V5.01L13.5,0l-.82.01.06,5Z" fill="#f06601"/>
    <path id="Path_732" data-name="Path 732" d="M10.15,13.21H3.42A2.59,2.59,0,0,1,.83,10.62V6.47A2.68,2.68,0,0,1,3.51,3.79V3A3.52,3.52,0,0,0,0,6.47v4.15A3.42,3.42,0,0,0,3.42,14H8.11v-.83Z" fill="#f06601"/>
    <path id="Path_733" data-name="Path 733" d="M10.15,14a3.42,3.42,0,0,0,3.42-3.42v-.06A3.45,3.45,0,0,1,10.15,14Z" fill="#f06601"/>
  </g>
</svg>
