<svg id="policies" xmlns="http://www.w3.org/2000/svg" width="21.92" height="22.38" viewBox="0 0 21.92 22.38">
  <g id="Layer_2" data-name="Layer 2">
    <rect id="Rectangle_312" data-name="Rectangle 312" width="21.2" height="21.66" rx="2.02" transform="translate(0.36 0.36)" fill="none" stroke="#f06601" stroke-miterlimit="10" stroke-width="0.72"/>
    <path id="Path_734" data-name="Path 734" d="M2.89,19.93H19a.27.27,0,0,0,0-.54H2.89a.27.27,0,1,0,0,.54Z" fill="#f06601"/>
    <path id="Path_735" data-name="Path 735" d="M16.69,10.25V5.39a.5.5,0,0,0-.51-.5,12,12,0,0,1-2.71-.17A5.91,5.91,0,0,1,11.3,3.15a.53.53,0,0,0-.77,0A5.42,5.42,0,0,1,8.45,4.72a11.93,11.93,0,0,1-2.65.17.56.56,0,0,0-.57.56v4.8a3.86,3.86,0,0,0,1.08,2.68,31.18,31.18,0,0,0,4.29,3.45.66.66,0,0,0,.75,0,30.7,30.7,0,0,0,4.25-3.44,3.9,3.9,0,0,0,1.09-2.69ZM13.86,8.38l-.42.43-2.9,3a.38.38,0,0,1-.51,0l-2-2c-.32-.33.19-.84.51-.51L10.29,11l.16-.17,2.9-3a.375.375,0,0,1,.51.55Z" fill="#f06601"/>
  </g>
</svg>
