<svg id="prospecting" xmlns="http://www.w3.org/2000/svg" width="21.69" height="21.86" viewBox="0 0 21.69 21.86">
  <g id="Layer_2" data-name="Layer 2">
    <rect id="Rectangle_313" data-name="Rectangle 313" width="9.34" height="9.34" rx="2.88" transform="translate(0.36 12.16)" fill="none" stroke="#f06601" stroke-miterlimit="10" stroke-width="0.72"/>
    <rect id="Rectangle_314" data-name="Rectangle 314" width="9.34" height="9.34" rx="2.88" transform="translate(21.33 21.5) rotate(180)" fill="none" stroke="#f06601" stroke-miterlimit="10" stroke-width="0.72"/>
    <path id="Path_736" data-name="Path 736" d="M14.39,1.53S13.86.36,13.22.36H8.48c-.65,0-1.17,1.17-1.17,1.17L.88,13.4a2.86,2.86,0,0,1,2.35-1.24h3.6A2.88,2.88,0,0,1,9.7,15v3.6a2.82,2.82,0,0,1-.12.83.308.308,0,0,0,.06-.19l.52-3.68a.84.84,0,0,1,.7-.43.8.8,0,0,1,.66.38l.53,3.73c0,.12,0,.18.07.19a2.53,2.53,0,0,1-.13-.83V15a2.88,2.88,0,0,1,2.87-2.87h3.6a2.88,2.88,0,0,1,2.36,1.24ZM10.55,12.82l.3-2.07.32,2.31Z" fill="#f06601" stroke="#f06601" stroke-miterlimit="10" stroke-width="0.72"/>
  </g>
</svg>
