<svg xmlns="http://www.w3.org/2000/svg" viewBox="0 0 21.69 21.86"><defs><style>.cls-1{fill:none;}.cls-1,.cls-2{stroke:#0051a8;stroke-miterlimit:10;stroke-width:0.72px;}.cls-2{fill:#0051a8;}</style></defs><g id="Layer_2" data-name="Layer 2"><g id="Layer_2-2" data-name="Layer 2"><rect class="cls-1" x="0.36" y="12.16" width="9.34" height="9.34" rx="2.88"/><rect class="cls-1" x="11.99" y="12.16" width="9.34" height="9.34" rx="2.88" transform="translate(33.32 33.66) rotate(-180)"/><path class="cls-2" d="M14.39,1.53S13.86.36,13.22.36H8.48c-.65,0-1.17,1.17-1.17,1.17L.88,13.4a2.86,2.86,0,0,1,2.35-1.24h3.6A2.88,2.88,0,0,1,9.7,15v3.6a2.82,2.82,0,0,1-.12.83s.06-.07.06-.19l.52-3.68a.84.84,0,0,1,.7-.43.8.8,0,0,1,.66.38l.53,3.73c0,.12,0,.18.07.19a2.53,2.53,0,0,1-.13-.83V15a2.88,2.88,0,0,1,2.87-2.87h3.6a2.88,2.88,0,0,1,2.36,1.24ZM10.55,12.82l.3-2.07.32,2.31Z"/></g></g></svg>