<svg xmlns="http://www.w3.org/2000/svg" width="21.27" height="22.23" viewBox="0 0 21.27 22.23">
  <g id="quiz" transform="translate(-0.005 -0.005)">
    <g id="Layer_2" data-name="Layer 2">
      <path id="Path_737" data-name="Path 737" d="M2.48,11.17l.74.75a.37.37,0,0,0,.52,0L5,10.5l.18-.2a.38.38,0,0,0,0-.52.37.37,0,0,0-.52,0L3.4,11.2l-.18.2h.52L3,10.66a.361.361,0,1,0-.51.51Z" fill="#f06601"/>
      <rect id="Rectangle_315" data-name="Rectangle 315" width="20.46" height="21.42" rx="2.04" transform="translate(0.41 0.41)" fill="none" stroke="#f06601" stroke-miterlimit="10" stroke-width="0.81"/>
      <path id="Path_738" data-name="Path 738" d="M3.11,5.49l1.4-1.41.21-.2a.364.364,0,1,0-.52-.51L2.79,4.77l-.2.2a.368.368,0,0,0,.52.52Z" fill="#f06601"/>
      <path id="Path_739" data-name="Path 739" d="M2.62,3.85,4,5.26l.2.2a.37.37,0,0,0,.52-.52L3.34,3.53l-.2-.2a.37.37,0,0,0-.52,0,.38.38,0,0,0,0,.52Z" fill="#f06601"/>
      <path id="Path_740" data-name="Path 740" d="M3.11,18.78l1.4-1.41.21-.2a.364.364,0,1,0-.52-.51l-1.41,1.4-.2.2a.368.368,0,0,0,.52.52Z" fill="#f06601"/>
      <path id="Path_741" data-name="Path 741" d="M2.62,17.14,4,18.55l.2.2a.37.37,0,1,0,.52-.52L3.34,16.82l-.2-.2a.37.37,0,0,0-.52,0,.38.38,0,0,0,0,.52Z" fill="#f06601"/>
      <path id="Path_742" data-name="Path 742" d="M7.46,4.78H18.61a.37.37,0,1,0,0-.74H7.46a.37.37,0,0,0,0,.74Z" fill="#f06601"/>
      <path id="Path_743" data-name="Path 743" d="M7.46,11.21H18.61a.37.37,0,0,0,0-.73H7.46a.37.37,0,0,0,0,.73Z" fill="#f06601"/>
      <path id="Path_744" data-name="Path 744" d="M7.46,18.07H18.61a.37.37,0,1,0,0-.74H7.46a.37.37,0,0,0,0,.74Z" fill="#f06601"/>
    </g>
  </g>
</svg>
