<svg xmlns="http://www.w3.org/2000/svg" viewBox="0 0 21.28 22.23"><defs><style>.cls-1{fill:#0072ed;}.cls-2{fill:none;stroke:#0072ed;stroke-miterlimit:10;stroke-width:0.81px;}</style></defs><g id="Layer_2" data-name="Layer 2"><g id="Layer_2-2" data-name="Layer 2"><path class="cls-1" d="M2.48,11.17l.74.75a.37.37,0,0,0,.52,0L5,10.5l.18-.2a.38.38,0,0,0,0-.52.37.37,0,0,0-.52,0L3.4,11.2l-.18.2h.52L3,10.66a.36.36,0,1,0-.51.51Z"/><rect class="cls-2" x="0.41" y="0.41" width="20.46" height="21.42" rx="2.04"/><path class="cls-1" d="M3.11,5.49l1.4-1.41.21-.2a.37.37,0,0,0,0-.51.37.37,0,0,0-.52,0L2.79,4.77l-.2.2a.37.37,0,0,0,0,.52.37.37,0,0,0,.52,0Z"/><path class="cls-1" d="M2.62,3.85,4,5.26l.2.2a.37.37,0,0,0,.52-.52L3.34,3.53l-.2-.2a.37.37,0,0,0-.52,0,.38.38,0,0,0,0,.52Z"/><path class="cls-1" d="M3.11,18.78l1.4-1.41.21-.2a.37.37,0,0,0,0-.51.37.37,0,0,0-.52,0l-1.41,1.4-.2.2a.37.37,0,0,0,0,.52.37.37,0,0,0,.52,0Z"/><path class="cls-1" d="M2.62,17.14,4,18.55l.2.2a.37.37,0,1,0,.52-.52L3.34,16.82l-.2-.2a.37.37,0,0,0-.52,0,.38.38,0,0,0,0,.52Z"/><path class="cls-1" d="M7.46,4.78H18.61a.37.37,0,0,0,0-.74H7.46a.37.37,0,0,0,0,.74Z"/><path class="cls-1" d="M7.46,11.21H18.61a.37.37,0,0,0,0-.73H7.46a.37.37,0,0,0,0,.73Z"/><path class="cls-1" d="M7.46,18.07H18.61a.37.37,0,0,0,0-.74H7.46a.37.37,0,0,0,0,.74Z"/></g></g></svg>