<svg xmlns="http://www.w3.org/2000/svg" width="23.123" height="22.193" viewBox="0 0 23.123 22.193">
  <g id="release-notes" transform="translate(0 -0.018)">
    <g id="Layer_2" data-name="Layer 2">
      <path id="Path_745" data-name="Path 745" d="M5.22.51v3a2,2,0,0,1-2,2H.47" fill="none" stroke="#f06601" stroke-miterlimit="10" stroke-width="0.72"/>
      <path id="Path_746" data-name="Path 746" d="M9.06,4.59h8.22a.27.27,0,1,0,0-.54H9.06a.27.27,0,1,0,0,.54Z" fill="#f06601"/>
      <rect id="Rectangle_316" data-name="Rectangle 316" width="1.17" height="1.17" rx="0.24" transform="translate(6.77 3.62)" fill="#f06601" stroke="#f06601" stroke-miterlimit="10" stroke-width="0.18"/>
      <path id="Path_747" data-name="Path 747" d="M5.14,10.18H17.28a.27.27,0,1,0,0-.54H5.14a.27.27,0,0,0,0,.54Z" fill="#f06601"/>
      <rect id="Rectangle_317" data-name="Rectangle 317" width="1.17" height="1.17" rx="0.24" transform="translate(2.66 9.3)" fill="#f06601" stroke="#f06601" stroke-miterlimit="10" stroke-width="0.18"/>
      <path id="Path_748" data-name="Path 748" d="M5.14,15.85h8.57a.27.27,0,0,0,0-.53H5.14a.27.27,0,0,0,0,.53Z" fill="#f06601"/>
      <rect id="Rectangle_318" data-name="Rectangle 318" width="1.17" height="1.17" rx="0.24" transform="translate(2.66 14.98)" fill="#f06601" stroke="#f06601" stroke-miterlimit="10" stroke-width="0.18"/>
      <path id="Path_749" data-name="Path 749" d="M14.61,21.19l-1.69.65a.54.54,0,0,1-.64-.53l.36-1.71a.68.68,0,0,1,.13-.27L20.61,9.9c.15-.18.49-.15.77.08l1.08.86c.28.23.38.56.23.74L14.85,21a.53.53,0,0,1-.24.19Z" fill="none" stroke="#f06601" stroke-miterlimit="10" stroke-width="0.72"/>
      <line id="Line_27" data-name="Line 27" x2="2.02" y2="1.63" transform="translate(19.59 11.04)" fill="none" stroke="#f06601" stroke-miterlimit="10" stroke-width="0.72"/>
      <line id="Line_28" data-name="Line 28" x2="2.17" y2="1.75" transform="translate(12.63 19.36)" fill="none" stroke="#f06601" stroke-miterlimit="10" stroke-width="0.72"/>
      <path id="Path_750" data-name="Path 750" d="M12.64,19.6a.68.68,0,0,1,.13-.27L19.66,11V2.38a2,2,0,0,0-2-2H5.29A.38.38,0,0,0,5,.48L.48,5.21a.4.4,0,0,0-.12.29V17.65a2,2,0,0,0,2,2H12.63Z" fill="none" stroke="#f06601" stroke-miterlimit="10" stroke-width="0.72"/>
      <path id="Path_751" data-name="Path 751" d="M16,19.66h1.67a2,2,0,0,0,2-2V15.23Z" fill="none" stroke="#f06601" stroke-miterlimit="10" stroke-width="0.72"/>
    </g>
  </g>
</svg>
