<svg xmlns="http://www.w3.org/2000/svg" viewBox="0 0 23.12 22.22"><defs><style>.cls-1{fill:none;stroke-width:0.72px;}.cls-1,.cls-3{stroke:#002f60;stroke-miterlimit:10;}.cls-2,.cls-3{fill:#002f60;}.cls-3{stroke-width:0.18px;}</style></defs><g id="Layer_2" data-name="Layer 2"><g id="Layer_2-2" data-name="Layer 2"><path class="cls-1" d="M5.22.51v3a2,2,0,0,1-2,2H.47"/><path class="cls-2" d="M9.06,4.59h8.22a.27.27,0,0,0,0-.54H9.06a.27.27,0,0,0,0,.54Z"/><rect class="cls-3" x="6.77" y="3.62" width="1.17" height="1.17" rx="0.24"/><path class="cls-2" d="M5.14,10.18H17.28a.27.27,0,0,0,0-.54H5.14a.27.27,0,0,0,0,.54Z"/><rect class="cls-3" x="2.66" y="9.3" width="1.17" height="1.17" rx="0.24"/><path class="cls-2" d="M5.14,15.85h8.57a.27.27,0,0,0,0-.53H5.14a.27.27,0,0,0,0,.53Z"/><rect class="cls-3" x="2.66" y="14.98" width="1.17" height="1.17" rx="0.24"/><path class="cls-1" d="M14.61,21.19l-1.69.65a.54.54,0,0,1-.64-.53l.36-1.71a.68.68,0,0,1,.13-.27L20.61,9.9c.15-.18.49-.15.77.08l1.08.86c.28.23.38.56.23.74L14.85,21A.53.53,0,0,1,14.61,21.19Z"/><line class="cls-1" x1="19.59" y1="11.04" x2="21.61" y2="12.67"/><line class="cls-1" x1="12.63" y1="19.36" x2="14.8" y2="21.11"/><path class="cls-1" d="M12.64,19.6a.68.68,0,0,1,.13-.27L19.66,11V2.38a2,2,0,0,0-2-2H5.29A.38.38,0,0,0,5,.48L.48,5.21a.4.4,0,0,0-.12.29V17.65a2,2,0,0,0,2,2H12.63Z"/><path class="cls-1" d="M16,19.66h1.67a2,2,0,0,0,2-2V15.23Z"/></g></g></svg>