<svg xmlns="http://www.w3.org/2000/svg" width="128" height="128" viewBox="0 0 128 128">
  <g id="report-status" transform="translate(2999 -585)">
    <g id="report-status-1" transform="translate(-2999.003 585.001)">
      <g id="Group_220" data-name="Group 220" transform="translate(0.003 123.333)">
        <g id="Group_219" data-name="Group 219" transform="translate(0)">
          <rect id="Rectangle_271" data-name="Rectangle 271" width="128" height="5" transform="translate(0 -0.333)" fill="#002f60"/>
        </g>
      </g>
      <g id="Group_222" data-name="Group 222" transform="translate(8.328 -0.001)">
        <g id="Group_221" data-name="Group 221" transform="translate(0 0)">
          <path id="Path_649" data-name="Path 649" d="M146.106,18.188,137.6,1.177a2.126,2.126,0,0,0-2.852-.953h0L117.736,8.73a2.127,2.127,0,1,0,1.9,3.806l12.32-6.156-3.362,9.6A113.475,113.475,0,0,1,31.323,91.437l.361,4.253A117.73,117.73,0,0,0,132.612,17.382l3.432-9.807L142.3,20.089a2.127,2.127,0,0,0,3.806-1.9Z" transform="translate(-31.323 0.001)" fill="#002f60"/>
        </g>
      </g>
      <g id="Group_224" data-name="Group 224" transform="translate(8.509 102.069)">
        <g id="Group_223" data-name="Group 223">
          <path id="Path_650" data-name="Path 650" d="M49.014,384.006H34.129A2.126,2.126,0,0,0,32,386.132v12.758a2.127,2.127,0,0,0,2.126,2.126H49.014a2.127,2.127,0,0,0,2.126-2.126V386.132A2.126,2.126,0,0,0,49.014,384.006Zm-2.126,12.758H36.256v-8.506H46.888Z" transform="translate(-32.003 -384.006)" fill="#002f60"/>
          <rect id="Rectangle_272" data-name="Rectangle 272" width="16" height="15" transform="translate(1.494 0.931)" fill="#002f60"/>
          <rect id="Rectangle_273" data-name="Rectangle 273" width="14" height="17" transform="translate(25.494 -3.069)" fill="#002f60"/>
          <rect id="Rectangle_274" data-name="Rectangle 274" width="13" height="28" transform="translate(49.494 -14.069)" fill="#002f60"/>
          <rect id="Rectangle_275" data-name="Rectangle 275" width="14" height="43" transform="translate(72.494 -29.069)" fill="#002f60"/>
          <rect id="Rectangle_276" data-name="Rectangle 276" width="14" height="73" transform="translate(95.494 -59.069)" fill="#002f60"/>
        </g>
      </g>
      <g id="Group_226" data-name="Group 226" transform="translate(31.899 95.689)">
        <g id="Group_225" data-name="Group 225">
          <path id="Path_651" data-name="Path 651" d="M137.014,360.006H122.129A2.127,2.127,0,0,0,120,362.132V381.27a2.127,2.127,0,0,0,2.126,2.126h14.885a2.127,2.127,0,0,0,2.126-2.126V362.132A2.127,2.127,0,0,0,137.014,360.006Zm-2.126,19.138H124.256V364.259h10.632Z" transform="translate(-120.003 -360.006)" fill="#002f60"/>
        </g>
      </g>
      <g id="Group_228" data-name="Group 228" transform="translate(55.29 85.057)">
        <g id="Group_227" data-name="Group 227">
          <path id="Path_652" data-name="Path 652" d="M225.014,320.006H210.129A2.127,2.127,0,0,0,208,322.132V351.9a2.126,2.126,0,0,0,2.126,2.126h14.885a2.126,2.126,0,0,0,2.126-2.126v-29.77A2.127,2.127,0,0,0,225.014,320.006Zm-2.126,29.77H212.256V324.259h10.632Z" transform="translate(-208.003 -320.006)" fill="#002f60"/>
        </g>
      </g>
      <g id="Group_230" data-name="Group 230" transform="translate(78.68 70.173)">
        <g id="Group_229" data-name="Group 229">
          <path id="Path_653" data-name="Path 653" d="M313.014,264.006H298.129A2.126,2.126,0,0,0,296,266.132v44.655a2.126,2.126,0,0,0,2.126,2.126h14.885a2.127,2.127,0,0,0,2.126-2.126V266.132A2.127,2.127,0,0,0,313.014,264.006Zm-2.126,44.655H300.256v-40.4h10.632Z" transform="translate(-296.003 -264.006)" fill="#002f60"/>
        </g>
      </g>
      <g id="Group_232" data-name="Group 232" transform="translate(102.071 40.403)">
        <g id="Group_231" data-name="Group 231">
          <path id="Path_654" data-name="Path 654" d="M401.014,152.006H386.129A2.126,2.126,0,0,0,384,154.132v74.424a2.126,2.126,0,0,0,2.126,2.126h14.885a2.126,2.126,0,0,0,2.126-2.126V154.132A2.126,2.126,0,0,0,401.014,152.006Zm-2.126,74.424H388.256V156.259h10.632Z" transform="translate(-384.003 -152.006)" fill="#002f60"/>
        </g>
      </g>
    </g>
  </g>
</svg>
