<svg id="resource" xmlns="http://www.w3.org/2000/svg" width="22.64" height="22.47" viewBox="0 0 22.64 22.47">
  <g id="Layer_2" data-name="Layer 2">
    <path id="Path_754" data-name="Path 754" d="M2.12,0H15.8l.25.09A2.13,2.13,0,0,1,17.54,1.2a.57.57,0,0,0,.6.35,2.23,2.23,0,0,1,1.94,1.06.77.77,0,0,0,.43.28,2.23,2.23,0,0,1,1.95,2.37V20a2.23,2.23,0,0,1-2.36,2.34H7.1a2.31,2.31,0,0,1-2-1.1A.69.69,0,0,0,4.59,21,2.12,2.12,0,0,1,3,19.9a.65.65,0,0,0-.66-.38A2.19,2.19,0,0,1,.1,17.34Q.1,9.8.1,2.24A1.82,1.82,0,0,1,.75.73,8.94,8.94,0,0,1,2.12,0ZM.72,9.81v7.25A1.67,1.67,0,0,0,2.56,18.9H15.42a1.63,1.63,0,0,0,1.77-1.78V2.5A1.63,1.63,0,0,0,15.41.7Q9,.69,2.51.7A1.63,1.63,0,0,0,.72,2.49ZM20.4,3.58V18.54A2.38,2.38,0,0,1,17.93,21H5.65a1.77,1.77,0,0,0,1.51.73H20a1.66,1.66,0,0,0,1.81-1.83V5.22A1.56,1.56,0,0,0,20.4,3.58Z" fill="#f06601"/>
    <path id="Path_755" data-name="Path 755" d="M2.12,0A8.94,8.94,0,0,0,.75.73,1.82,1.82,0,0,0,.09,2.24q0,7.55,0,15.1A2.19,2.19,0,0,0,2.3,19.52a.65.65,0,0,1,.7.38A2.12,2.12,0,0,0,4.59,21a.69.69,0,0,1,.44.26,2.31,2.31,0,0,0,2.05,1.1h13A2.23,2.23,0,0,0,22.46,20V5.26a2.23,2.23,0,0,0-1.95-2.37.77.77,0,0,1-.43-.28,2.23,2.23,0,0,0-1.94-1.06.57.57,0,0,1-.6-.35A2.13,2.13,0,0,0,16.05.09L15.8,0h6.84V22.47H0V0Z" fill="none"/>
    <path id="Path_756" data-name="Path 756" d="M.72,9.81V2.49A1.63,1.63,0,0,1,2.51.7Q9,.69,15.41.7a1.63,1.63,0,0,1,1.78,1.8V17.11a1.63,1.63,0,0,1-1.77,1.78H2.56A1.67,1.67,0,0,1,.72,17.06ZM9,7.8h6a.7.7,0,0,0,.29,0,1.5,1.5,0,0,0,.27-.24,1.06,1.06,0,0,0-.27-.25H2.76a3.61,3.61,0,0,0-.3.25,1.37,1.37,0,0,0,.29.25A.66.66,0,0,0,3,7.8Zm0,4h5.94a.85.85,0,0,0,.32,0c.11,0,.18-.17.27-.25a1.57,1.57,0,0,0-.27-.25.88.88,0,0,0-.28,0H3a.88.88,0,0,0-.28,0c-.1.06-.24.17-.23.25a.444.444,0,0,0,.24.25.85.85,0,0,0,.32,0ZM9,3.34H3a1.5,1.5,0,0,0-.37,0c-.08,0-.2.14-.19.2a.39.39,0,0,0,.19.25.63.63,0,0,0,.28,0H15.05a.62.62,0,0,0,.24,0c.1-.06.22-.15.22-.23s-.12-.2-.21-.23a1.08,1.08,0,0,0-.36,0Zm0,11.9H3a.86.86,0,0,0-.32,0,.47.47,0,0,0-.19.25c0,.06.11.17.19.2a.84.84,0,0,0,.32,0H15a.91.91,0,0,0,.33,0,.31.31,0,0,0,.17-.22.29.29,0,0,0-.17-.22,1.08,1.08,0,0,0-.36,0Z" fill="none"/>
    <path id="Path_757" data-name="Path 757" d="M20.4,3.58a1.56,1.56,0,0,1,1.43,1.64q0,3.135,0,6.26v8.43A1.66,1.66,0,0,1,20,21.74H7.16A1.77,1.77,0,0,1,5.65,21H17.93a2.38,2.38,0,0,0,2.48-2.49q0-7.2,0-14.41Z" fill="none"/>
    <path id="Path_758" data-name="Path 758" d="M9,7.8H3a.66.66,0,0,1-.28,0,1.37,1.37,0,0,1-.29-.25,3.61,3.61,0,0,1,.3-.25H15.28a1.06,1.06,0,0,1,.27.25,1.5,1.5,0,0,1-.27.24.7.7,0,0,1-.29,0Z" fill="#f06601"/>
    <path id="Path_759" data-name="Path 759" d="M9,11.77H3a.85.85,0,0,1-.32,0,.309.309,0,0,1-.24-.25c0-.09.13-.19.23-.25a.88.88,0,0,1,.28,0H15a.88.88,0,0,1,.28,0,1.57,1.57,0,0,1,.27.25c-.09.08-.16.2-.27.25a.85.85,0,0,1-.32,0Z" fill="#f06601"/>
    <path id="Path_760" data-name="Path 760" d="M9,3.34h5.9a1.08,1.08,0,0,1,.36,0c.09,0,.21.15.21.23s-.12.17-.22.23a.62.62,0,0,1-.24,0H2.93a.63.63,0,0,1-.28,0,.39.39,0,0,1-.19-.25c0-.06.11-.17.19-.2a1.5,1.5,0,0,1,.37,0Z" fill="#f06601"/>
    <path id="Path_761" data-name="Path 761" d="M9,15.24h6a1.08,1.08,0,0,1,.36,0,.29.29,0,0,1,.17.22.31.31,0,0,1-.17.22.91.91,0,0,1-.33,0H3a.84.84,0,0,1-.32,0c-.08,0-.2-.14-.19-.2a.47.47,0,0,1,.19-.25.86.86,0,0,1,.32,0Z" fill="#f06601"/>
  </g>
</svg>
