<svg id="risk-assessments" xmlns="http://www.w3.org/2000/svg" width="21.939" height="21.92" viewBox="0 0 21.939 21.92">
  <g id="Layer_2" data-name="Layer 2">
    <path id="Path_762" data-name="Path 762" d="M8.57,3.58h8.52a.27.27,0,1,0,0-.54H8.57a.27.27,0,1,0,0,.54Z" fill="#f06601"/>
    <path id="Path_763" data-name="Path 763" d="M8.57,9.87h4.21a.27.27,0,1,0,0-.54H8.57a.27.27,0,1,0,0,.54Z" fill="#f06601"/>
    <path id="Path_764" data-name="Path 764" d="M16.49,9.87h.61a.27.27,0,0,0,.19-.08.26.26,0,0,0,.08-.19.28.28,0,0,0-.27-.27h-.61a.27.27,0,0,0-.19.08.29.29,0,0,0-.08.19A.28.28,0,0,0,16.49,9.87Z" fill="#f06601"/>
    <path id="Path_765" data-name="Path 765" d="M8.57,16.58H9a.3.3,0,0,0,.2-.08.25.25,0,0,0,.07-.19.26.26,0,0,0-.07-.19A.3.3,0,0,0,9,16H8.57a.3.3,0,0,0-.2.08.29.29,0,0,0,0,.38.3.3,0,0,0,.2.08Z" fill="#f06601"/>
    <path id="Path_766" data-name="Path 766" d="M21.36,19.35l-5.27-8.89a1.47,1.47,0,0,0-2.52,0L8.3,19.35a1.46,1.46,0,0,0,1.26,2.21H20.1a1.47,1.47,0,0,0,1.26-2.21ZM14,13.56c0-.19.2-.34.46-.34h.72c.26,0,.46.15.46.34v3.93c0,.19-.2.34-.46.34h-.72c-.26,0-.46-.15-.46-.34Zm1.66,6c0,.22-.24.4-.53.4h-.62c-.29,0-.53-.18-.53-.4v-.3c0-.22.24-.4.53-.4h.62c.29,0,.53.18.53.4Z" fill="#f06601" stroke="#f06601" stroke-miterlimit="10" stroke-width="0.72"/>
    <path id="Path_767" data-name="Path 767" d="M8.2,19.36l5.27-8.89a1.46,1.46,0,0,1,2.52,0l3.7,6.24V2.26a1.9,1.9,0,0,0-1.9-1.9H2.26a1.9,1.9,0,0,0-1.9,1.9V17.79a1.9,1.9,0,0,0,1.9,1.9h5.8a2.33,2.33,0,0,1,.14-.33Z" fill="none" stroke="#f06601" stroke-miterlimit="10" stroke-width="0.72"/>
    <path id="Path_768" data-name="Path 768" d="M2.35,3.81,3.42,4.88a.27.27,0,0,0,.38,0l1.75-2,.25-.29c.22-.27-.16-.65-.38-.38l-1.75,2-.25.29H3.8L2.73,3.43a.27.27,0,0,0-.38.38Z" fill="#f06601"/>
    <path id="Path_769" data-name="Path 769" d="M2.35,9.77l1.07,1.07a.27.27,0,0,0,.38,0l1.75-2,.25-.29c.22-.27-.16-.65-.38-.38l-1.75,2-.25.29H3.8L2.73,9.39a.27.27,0,0,0-.38.38Z" fill="#f06601"/>
    <path id="Path_770" data-name="Path 770" d="M2.35,15.73,3.42,16.8a.27.27,0,0,0,.38,0l1.75-2,.25-.29c.22-.27-.16-.65-.38-.39l-1.75,2-.25.29H3.8L2.73,15.35a.27.27,0,0,0-.38.38Z" fill="#f06601"/>
  </g>
</svg>
