<svg xmlns="http://www.w3.org/2000/svg" width="18.308" height="16.719" viewBox="0 0 18.308 16.719">
  <g id="send" transform="translate(-0.004 -0.008)">
    <g id="Layer_2" data-name="Layer 2">
      <path id="Path_771" data-name="Path 771" d="M17.16,7.93,1.88.9a.74.74,0,0,0-1,.67L2.25,6.7a.52.52,0,0,0,.45.51l6.78.9a.26.26,0,1,1,0,.52l-6.78.9a.52.52,0,0,0-.45.51L.84,15.16a.73.73,0,0,0,1,.67l15.28-7a.47.47,0,0,0,.04-.9Z" fill="none" stroke="#f06601" stroke-miterlimit="10" stroke-width="1.67"/>
    </g>
  </g>
</svg>
