<svg xmlns="http://www.w3.org/2000/svg" width="22.04" height="22.013" viewBox="0 0 22.04 22.013">
  <g id="training" transform="translate(0 0)">
    <g id="Layer_2" data-name="Layer 2">
      <path id="Path_772" data-name="Path 772" d="M11,5.27h8.52a.27.27,0,1,0,0-.54H11a.27.27,0,0,0,0,.54Z" fill="#f06601"/>
      <path id="Path_773" data-name="Path 773" d="M11,8h8.52a.27.27,0,1,0,0-.54H11A.27.27,0,0,0,11,8Z" fill="#f06601"/>
      <path id="Path_774" data-name="Path 774" d="M11,10.66h8.52a.27.27,0,1,0,0-.54H11a.27.27,0,0,0,0,.54Z" fill="#f06601"/>
      <path id="Path_775" data-name="Path 775" d="M2.07,13.36H19.56a.27.27,0,1,0,0-.54H2.07a.27.27,0,0,0,0,.54Z" fill="#f06601"/>
      <rect id="Rectangle_324" data-name="Rectangle 324" width="21.32" height="14.22" rx="1.6" transform="translate(0.36 2.07)" fill="none" stroke="#f06601" stroke-miterlimit="10" stroke-width="0.72"/>
      <line id="Line_29" data-name="Line 29" x1="3.86" y2="3.86" transform="translate(4.15 17.07)" fill="#666"/>
      <path id="Path_776" data-name="Path 776" d="M7.25,16.31,3.87,19.69l-.49.48a1.1,1.1,0,0,0,0,1.53,1.12,1.12,0,0,0,1.53,0l3.38-3.38.48-.49a1.075,1.075,0,0,0-1.52-1.52Z" fill="#f06601"/>
      <path id="Path_777" data-name="Path 777" d="M8.76,17.84l1.35-1.35-1.42-.14Z" fill="#f06601"/>
      <line id="Line_30" data-name="Line 30" x2="3.86" y2="3.86" transform="translate(14.04 17.07)" fill="#666"/>
      <path id="Path_778" data-name="Path 778" d="M13.27,17.83l3.39,3.39.48.48a1.08,1.08,0,0,0,1.52,0,1.1,1.1,0,0,0,0-1.53l-3.38-3.38-.48-.48a1.08,1.08,0,0,0-1.53,1.52Z" fill="#f06601"/>
      <path id="Path_779" data-name="Path 779" d="M13.29,17.84l-1.36-1.35,1.43-.14Z" fill="#f06601"/>
      <line id="Line_31" data-name="Line 31" y2="0.1" transform="translate(11.02 1.08)" fill="#666"/>
      <path id="Path_780" data-name="Path 780" d="M9.94,1.08v.1a.87.87,0,0,0,.1.42.87.87,0,0,0,.22.35.8.8,0,0,0,.35.22.73.73,0,0,0,.41.09h.29A1.15,1.15,0,0,0,11.79,2L12,1.73a1.06,1.06,0,0,0,.15-.55v-.1A.76.76,0,0,0,12,.66a.87.87,0,0,0-.22-.34.89.89,0,0,0-.35-.23A1,1,0,0,0,11,0h-.28a1,1,0,0,0-.48.28l-.17.21a1.16,1.16,0,0,0-.15.55Z" fill="#f06601"/>
      <path id="Path_781" data-name="Path 781" d="M9.95,1.21V2.1h2.06l.08-.09.01-.9" fill="#f06601"/>
      <circle id="Ellipse_39" data-name="Ellipse 39" cx="3.65" cy="3.65" r="3.65" transform="translate(2.14 4.23)" fill="none" stroke="#f06601" stroke-miterlimit="10" stroke-width="0.48"/>
      <path id="Path_782" data-name="Path 782" d="M7.46,4.7,6.08,7.33a.36.36,0,0,0,.33.53l3-.1" fill="none" stroke="#f06601" stroke-miterlimit="10" stroke-width="0.48"/>
    </g>
  </g>
</svg>
