<svg xmlns="http://www.w3.org/2000/svg" width="21.92" height="22.065" viewBox="0 0 21.92 22.065">
  <g id="users" transform="translate(0 0.005)">
    <g id="Layer_2" data-name="Layer 2">
      <rect id="Rectangle_325" data-name="Rectangle 325" width="16.77" height="9.22" rx="2.61" transform="translate(0.41 12.43)" fill="none" stroke="#f06601" stroke-miterlimit="10" stroke-width="0.82"/>
      <circle id="Ellipse_40" data-name="Ellipse 40" cx="4.59" cy="4.59" r="4.59" transform="translate(4.21 2.05)" fill="none" stroke="#f06601" stroke-miterlimit="10" stroke-width="0.75"/>
      <path id="Path_783" data-name="Path 783" d="M13.11.37a4.56,4.56,0,0,0-2.64.84,5.53,5.53,0,0,1,3.29,8.3A4.59,4.59,0,0,0,13.11.37Z" fill="#f06601" stroke="#f06601" stroke-miterlimit="10" stroke-width="0.75"/>
      <path id="Path_784" data-name="Path 784" d="M18.89,10.76H13c-.15.14-.3.28-.47.41h2.62a3.27,3.27,0,0,1,3.26,3.26V19.5a3.731,3.731,0,0,1,0,.48h.5a2.61,2.61,0,0,0,2.6-2.61v-4a2.61,2.61,0,0,0-2.62-2.61Z" fill="#f06601" stroke="#f06601" stroke-miterlimit="10" stroke-width="0.82"/>
    </g>
  </g>
</svg>
