<svg xmlns="http://www.w3.org/2000/svg" viewBox="0 0 21.91 22.07"><defs><style>.cls-1,.cls-2{fill:none;}.cls-1,.cls-2,.cls-3,.cls-4{stroke:#0051a8;stroke-miterlimit:10;}.cls-1,.cls-4{stroke-width:0.82px;}.cls-2,.cls-3{stroke-width:0.75px;}.cls-3,.cls-4{fill:#0051a8;}</style></defs><g id="Layer_2" data-name="Layer 2"><g id="Layer_2-2" data-name="Layer 2"><rect class="cls-1" x="0.41" y="12.43" width="16.77" height="9.22" rx="2.61"/><circle class="cls-2" cx="8.8" cy="6.64" r="4.59"/><path class="cls-3" d="M13.11.37a4.56,4.56,0,0,0-2.64.84,5.53,5.53,0,0,1,3.29,8.3A4.59,4.59,0,0,0,13.11.37Z"/><path class="cls-4" d="M18.89,10.76H13c-.15.14-.3.28-.47.41h2.62a3.27,3.27,0,0,1,3.26,3.26V19.5a3.73,3.73,0,0,1,0,.48h.5a2.61,2.61,0,0,0,2.6-2.61v-4A2.61,2.61,0,0,0,18.89,10.76Z"/></g></g></svg>